<svg xmlns="http://www.w3.org/2000/svg" xmlns:xlink="http://www.w3.org/1999/xlink" preserveAspectRatio="xMidYMid" width="30" height="33" viewBox="0 0 30 33">
  <defs>
    <style>
      .cls-1 {
        fill: #000;
        fill-rule: evenodd;
      }
    </style>
  </defs>
  <path d="M27.010,33.000 L3.009,33.000 C1.355,33.000 0.010,31.654 0.010,30.000 L0.010,6.000 C0.010,4.346 1.355,3.000 3.009,3.000 L4.509,3.000 L4.509,-0.000 L7.509,-0.000 L7.509,3.000 L22.509,3.000 L22.509,-0.000 L25.509,-0.000 L25.509,3.000 L27.010,3.000 C28.663,3.000 30.009,4.346 30.009,6.000 L30.009,30.000 C30.009,31.654 28.663,33.000 27.010,33.000 ZM27.010,10.500 L3.009,10.500 L3.009,30.000 L27.010,30.000 L27.010,10.500 Z" class="cls-1"/>
</svg>
